<?xml version="1.0" encoding="UTF-8"?>
<svg width="702px" height="64px" viewBox="0 0 702 64" version="1.1" xmlns="http://www.w3.org/2000/svg" xmlns:xlink="http://www.w3.org/1999/xlink">
    <!-- Generator: Sketch 43.2 (39069) - http://www.bohemiancoding.com/sketch -->
    <title>Group 9</title>
    <desc>Created with Sketch.</desc>
    <defs></defs>
    <g id="Page-1" stroke="none" stroke-width="1" fill="none" fill-rule="evenodd">
        <g id="Group-9" fill="#232323">
            <g id="Group-10">
                <path d="M649.675739,58.6166667 L653.830568,46.1583333 C658.262409,46.1583333 663.026565,45.4083408 668.123182,43.9083333 L659.190298,3.95 L669.494276,0.325 L678.177869,39.1583333 C682.526613,35.8527613 685.552683,31.7416912 687.256172,26.825 C688.959661,21.9083087 689.811392,14.8667125 689.811392,5.7 L689.811392,1.325 L701.361818,1.325 L701.361818,4.40833333 C701.361818,15.0472754 699.734526,23.9221867 696.479893,31.0333333 C693.225261,38.14448 688.094098,44.0471988 681.08625,48.7416667 C671.253104,55.3250329 660.783038,58.6166667 649.675739,58.6166667 Z M634.05358,51.2 L634.05358,25.6166667 C634.05358,20.4777521 633.201848,16.9430652 631.498359,15.0125 C629.794871,13.0819348 626.18713,11.5611167 620.675028,10.45 L625.99321,0.325 C632.502476,1.51945042 637.183537,3.39443167 640.036534,5.95 C641.920066,7.64445292 643.187277,9.64443292 643.838203,11.95 C644.48913,14.2555671 644.814588,17.9499746 644.814588,23.0333333 L644.814588,51.2 L634.05358,51.2 Z M565.914375,51.2 L571.938878,28.0333333 C573.046838,23.7833121 573.60081,20.8527858 573.60081,19.2416667 C573.60081,15.9360946 570.789403,11.4916946 565.166506,5.90833333 L574.764162,0.325 C577.811052,2.88056833 580.414719,6.36664458 582.575241,10.7833333 C587.007082,3.81107625 592.32521,0.325 598.529787,0.325 C603.210918,0.325 606.950227,2.10970437 609.747827,5.67916667 C612.545426,9.24862896 614.207341,14.3666333 614.733622,21.0333333 L616.146264,38.8666667 L612.074531,51.2 L588.059616,51.2 L592.172898,38.8666667 L605.260611,38.8666667 L604.305,26.075 C603.640224,17.1305108 600.718023,12.6583333 595.53831,12.6583333 C592.546817,12.6583333 590.033171,14.151374 587.997294,17.1375 C585.961417,20.123626 584.015592,25.1582979 582.159759,32.2416667 L577.173963,51.2 L565.914375,51.2 Z M546.30358,51.2 L546.30358,27.0333333 C546.30358,20.5888567 545.763457,16.7486173 544.683196,15.5125 C543.602935,14.2763827 540.209858,13.6583333 534.503864,13.6583333 L518.840156,13.6583333 L522.911889,1.325 L536.331989,1.325 C544.669388,1.325 550.236804,2.54721 553.034403,4.99166667 C554.668645,6.40834042 555.748889,8.17915604 556.27517,10.3041667 C556.801451,12.4291773 557.064588,16.1166404 557.064588,21.3666667 L557.064588,51.2 L546.30358,51.2 Z M451.796165,63.5333333 L451.796165,24.575 L462.557173,24.575 L462.557173,63.5333333 L451.796165,63.5333333 Z M445.106889,13.6583333 L449.22017,1.325 L478.054687,1.325 C483.345197,1.325 487.070657,1.56110875 489.231179,2.03333333 C491.391701,2.50555792 493.205959,3.47777042 494.674006,4.95 C496.806829,7.1166775 497.873224,10.2277575 497.873224,14.2833333 C497.873224,22.4222629 494.895626,30.0194092 488.940341,37.075 C482.985055,44.1305908 475.298698,49.1722071 465.881037,52.2 L470.326705,38.95 C474.730846,37.6999938 478.400909,35.2625181 481.337003,31.6375 C484.273097,28.0124819 485.741122,24.1166875 485.741122,19.95 C485.741122,17.4499875 484.868617,15.7763931 483.12358,14.9291667 C481.378542,14.0819402 477.916219,13.6583333 472.736506,13.6583333 L445.106889,13.6583333 Z M421.382812,51.2 L421.382812,13.6583333 L396.038352,13.6583333 L400.151634,1.325 L442.946378,1.325 L438.833097,13.6583333 L432.143821,13.6583333 L432.143821,51.2 L421.382812,51.2 Z M341.443892,51.2 L347.468395,28.0333333 C348.576355,23.7833121 349.130327,20.8527858 349.130327,19.2416667 C349.130327,15.9360946 346.31892,11.4916946 340.696023,5.90833333 L350.293679,0.325 C353.340569,2.88056833 355.944236,6.36664458 358.104759,10.7833333 C362.536599,3.81107625 367.854727,0.325 374.059304,0.325 C378.740435,0.325 382.479745,2.10970437 385.277344,5.67916667 C388.074943,9.24862896 389.736858,14.3666333 390.263139,21.0333333 L391.675781,38.8666667 L387.604048,51.2 L363.589134,51.2 L367.702415,38.8666667 L380.790128,38.8666667 L379.834517,26.075 C379.169741,17.1305108 376.24754,12.6583333 371.067827,12.6583333 C368.076334,12.6583333 365.562688,14.151374 363.526811,17.1375 C361.490934,20.123626 359.545109,25.1582979 357.689276,32.2416667 L352.70348,51.2 L341.443892,51.2 Z M330.932173,34.4916667 L320.129616,34.4916667 C322.068547,27.38052 323.037997,22.2972375 323.037997,19.2416667 C323.037997,17.0472112 322.082396,15.3111175 320.171165,14.0333333 C318.259934,12.7555492 314.949953,11.6444492 310.241122,10.7 L315.808594,0.325 C322.594849,1.68611792 327.324383,3.55415479 329.997337,5.92916667 C332.67029,8.30417854 334.006747,11.8110879 334.006747,16.45 C334.006747,19.3666812 333.341981,23.8110812 332.012429,29.7833333 L330.932173,34.4916667 Z" id="עומר-קדמי"></path>
                <path d="M238.570312,54.365625 L241.426758,45.8005208 C244.473648,45.8005208 247.749006,45.284901 251.25293,44.2536458 L245.111572,16.7822917 L252.195557,14.2901042 L258.165527,40.9880208 C261.155288,38.71544 263.235712,35.8890794 264.40686,32.5088542 C265.578009,29.1286289 266.163574,24.2875315 266.163574,17.9854167 L266.163574,14.9776042 L274.104492,14.9776042 L274.104492,17.0973958 C274.104492,24.4116685 272.985729,30.51317 270.748169,35.4020833 C268.510609,40.2909967 264.982934,44.3491158 260.165039,47.5765625 C253.404751,52.1026268 246.206581,54.365625 238.570312,54.365625 Z M206.263916,49.2666667 L209.091797,40.7875 L226.716064,40.7875 L226.716064,32.6520833 C226.716064,28.2215056 226.34473,25.5813411 225.602051,24.7315104 C224.859371,23.8816798 222.526631,23.4567708 218.60376,23.4567708 L207.949219,23.4567708 L210.7771,14.9776042 L219.832031,14.9776042 C225.563994,14.9776042 229.391592,15.8178735 231.314941,17.4984375 C232.457525,18.4724007 233.209715,19.6898364 233.571533,21.1507812 C233.933351,22.6117261 234.114258,25.146857 234.114258,28.75625 L234.114258,40.7875 L238.68457,40.7875 L235.885254,49.2666667 L206.263916,49.2666667 Z M192.524414,49.2666667 L192.524414,31.678125 C192.524414,28.1451212 191.938849,25.715024 190.7677,24.3877604 C189.596552,23.0604968 187.11623,22.0149344 183.32666,21.2510417 L186.98291,14.2901042 C191.45803,15.1112888 194.67626,16.4003384 196.637695,18.1572917 C197.932624,19.322228 198.803831,20.6972143 199.251343,22.2822917 C199.698855,23.867369 199.922607,26.4072742 199.922607,29.9020833 L199.922607,49.2666667 L192.524414,49.2666667 Z M167.787598,49.2666667 L167.787598,23.4567708 L150.363281,23.4567708 L153.191162,14.9776042 L182.612549,14.9776042 L179.784668,23.4567708 L175.185791,23.4567708 L175.185791,49.2666667 L167.787598,49.2666667 Z M137.880615,49.2666667 L137.880615,31.678125 C137.880615,28.1451212 137.29505,25.715024 136.123901,24.3877604 C134.952753,23.0604968 132.472431,22.0149344 128.682861,21.2510417 L132.339111,14.2901042 C136.814231,15.1112888 140.032461,16.4003384 141.993896,18.1572917 C143.288825,19.322228 144.160032,20.6972143 144.607544,22.2822917 C145.055056,23.867369 145.278809,26.4072742 145.278809,29.9020833 L145.278809,49.2666667 L137.880615,49.2666667 Z M87.1501465,49.2666667 L89.9780273,40.7875 L97.3476562,40.7875 C95.8432542,36.9107445 95.0910645,32.1555837 95.0910645,26.521875 L95.0910645,23.4567708 L90.8349609,23.4567708 L93.6628418,14.9776042 L109.344727,14.9776042 C115.076689,14.9776042 118.904287,15.8178735 120.827637,17.4984375 C121.970221,18.4724007 122.72241,19.6850622 123.084229,21.1364583 C123.446047,22.5878545 123.626953,25.1277596 123.626953,28.75625 L123.626953,49.2666667 L116.22876,49.2666667 L116.22876,32.6520833 C116.22876,28.2215056 115.857426,25.5813411 115.114746,24.7315104 C114.372067,23.8816798 112.039326,23.4567708 108.116455,23.4567708 L102.517822,23.4567708 L102.517822,25.9776042 C102.517822,32.1269405 103.39379,37.063523 105.145752,40.7875 L102.346436,49.2666667 L87.1501465,49.2666667 Z M28.8500977,54.365625 L31.706543,45.8005208 C34.7534332,45.8005208 38.0287911,45.284901 41.5327148,44.2536458 L35.3913574,16.7822917 L42.4753418,14.2901042 L48.4453125,40.9880208 C51.4350735,38.71544 53.5154971,35.8890794 54.6866455,32.5088542 C55.8577939,29.1286289 56.4433594,24.2875315 56.4433594,17.9854167 L56.4433594,14.9776042 L64.3842773,14.9776042 L64.3842773,17.0973958 C64.3842773,24.4116685 63.2655141,30.51317 61.0279541,35.4020833 C58.7903941,40.2909967 55.2627194,44.3491158 50.4448242,47.5765625 C43.6845365,52.1026268 36.4863663,54.365625 28.8500977,54.365625 Z M8.96923828,57.7458333 L8.96923828,42.6494792 C8.96923828,39.994952 8.864503,38.14254 8.6550293,37.0921875 C8.44555559,36.041835 7.8266653,34.3421992 6.79833984,31.9932292 L0.114257813,16.7536458 L7.14111328,14.2901042 L14.5964355,31.334375 C16.9196894,29.5010325 18.5526076,27.5053927 19.4952393,25.3473958 C20.4378709,23.1893989 20.9091797,20.4012324 20.9091797,16.9828125 L20.9091797,14.9776042 L28.8500977,14.9776042 L28.8500977,16.38125 C28.8500977,25.7198384 24.6892506,32.8334825 16.3674316,37.7223958 L16.3674316,57.7458333 L8.96923828,57.7458333 Z" id="עבודות-עץ"></path>
            </g>
        </g>
    </g>
</svg>