<?xml version="1.0" encoding="UTF-8"?>
<svg width="310px" height="70px" viewBox="0 0 310 70" version="1.1" xmlns="http://www.w3.org/2000/svg" xmlns:xlink="http://www.w3.org/1999/xlink">
    <!-- Generator: Sketch 43.2 (39069) - http://www.bohemiancoding.com/sketch -->
    <title>spawn</title>
    <desc>Created with Sketch.</desc>
    <defs></defs>
    <g id="Symbols" stroke="none" stroke-width="1" fill="none" fill-rule="evenodd">
        <g id="spawn">
            <g id="Group-3" transform="translate(0.000000, 9.000000)">
                <path d="M24.423,33.666 C23.7149965,33.2333312 23.0856694,32.7711691 22.535,32.2795 C21.9843306,31.7878309 21.4730024,31.5616665 21.001,31.601 C20.1356623,31.1289976 19.9389976,30.2046735 20.411,28.828 C20.6076676,28.2773306 20.9714973,27.7561691 21.5025,27.2645 C22.0335027,26.7728309 22.7119959,26.4286676 23.538,26.232 C27.471353,24.5406582 31.1096499,24.1473288 34.453,25.052 C35.9476741,25.4453353 36.9801638,26.2418273 37.5505,27.4415 C38.1208362,28.6411727 38.3666671,29.9883259 38.288,31.483 C38.2093329,32.9776741 37.8848362,34.4919923 37.3145,36.026 C36.7441638,37.5600077 36.12467,38.789162 35.456,39.7135 C34.78733,40.637838 33.8531727,41.729327 32.6535,42.988 C31.4538273,44.246673 29.9493424,45.4659941 28.14,46.646 C23.6953111,49.5173477 18.9360254,50.8940006 13.862,50.776 C6.50662989,50.6579994 2.16034002,47.6490295 0.823,41.749 C0.39033117,39.8609906 0.19366647,37.7370118 0.233,35.377 C0.6263353,28.5329658 2.67164818,22.141363 6.369,16.202 C8.13900885,13.3699858 10.5186517,10.5773471 13.508,7.824 C15.3960094,6.13265821 17.5199882,4.83467119 19.88,3.93 C21.138673,3.41866411 22.6529911,2.92700236 24.423,2.455 C30.0870283,1.31432763 34.4923176,2.02232055 37.639,4.579 C39.1336741,5.79833943 40.1268309,7.56832173 40.6185,9.889 C41.1101691,12.2096783 40.8446718,14.8056523 39.822,17.677 C39.3893312,19.01434 38.6420053,20.01733 37.58,20.686 C36.5179947,21.35467 35.4265056,21.7381662 34.3055,21.8365 C33.1844944,21.9348338 32.1716712,21.7971685 31.267,21.4235 C30.3623288,21.0498315 29.8706671,20.5090035 29.792,19.801 L29.261,18.621 C28.3169953,17.2049929 26.6846783,17.0279947 24.364,18.09 C22.35799,18.9946712 20.35201,20.5679888 18.346,22.81 C16.2219894,25.2093453 14.8453365,27.372657 14.216,29.3 C13.5079965,31.4240106 13.154,32.82033 13.154,33.489 C13.0753329,34.9836741 13.6063276,36.3209941 14.747,37.501 C16.3990083,38.5630053 18.0509917,39.0448338 19.703,38.9465 C21.3550083,38.8481662 22.8299935,38.4745032 24.128,37.8255 C25.4260065,37.1764968 26.4879959,36.4390041 27.314,35.613 C28.1400041,34.7869959 28.553,34.1970018 28.553,33.843 C28.5938239,33.7613522 28.6346476,33.6797048 28.6754712,33.5980576 C27.223508,34.4250644 25.8060259,34.4477103 24.423,33.666 Z M50.678,7.942 C53.1560124,5.10998584 55.9093182,3.34000354 58.938,2.632 C61.0226771,2.12066411 62.9893241,2.19932999 64.838,2.868 C66.2933406,1.33399233 68.1813217,0.78333117 70.502,1.216 C72.6260106,1.6093353 74.4353259,2.80898997 75.93,4.815 C76.0086671,5.09033471 76.1758321,5.50333058 76.4315,6.054 C76.6871679,6.60466942 76.9329988,7.21432999 77.169,7.883 C78.8996753,11.8950201 79.0373406,17.165634 77.582,23.695 C75.7726576,31.7977072 72.567023,38.6613052 67.965,44.286 C66.5489929,46.0166753 64.9560089,47.4523276 63.186,48.593 C60.3539858,50.7563442 56.971353,51.7200012 53.038,51.484 C50.5993211,51.3659994 48.5540083,50.7563388 46.902,49.655 C40.3333005,46.390317 38.1896553,39.5857184 40.471,29.241 C42.3590094,20.7449575 45.7613087,13.6453618 50.678,7.942 Z M51.386,39.271 L51.327,39.625 L51.445,40.274 C51.6810012,41.4933394 52.0743306,42.4274968 52.625,43.0765 C53.1756694,43.7255032 53.6279982,44.1286659 53.982,44.286 C54.3753353,43.9713318 54.7686647,43.6763347 55.162,43.401 C55.5553353,43.1256653 55.9093318,42.7913353 56.224,42.398 C58.89868,39.0939835 60.9833259,34.7673601 62.478,29.418 C63.9726741,24.0686399 64.5233353,19.1126895 64.13,14.55 C62.5959923,16.5166765 60.9833418,18.7783206 59.292,21.335 C57.6006582,23.8916794 56.2633383,26.0746576 55.28,27.884 C53.0379888,32.0926877 51.7400018,35.8883164 51.386,39.271 Z M107.554,2.514 L107.79,2.573 C108.773338,3.16300295 109.62883,3.82182969 110.3565,4.5495 C111.08417,5.2771703 111.75283,6.04416263 112.3625,6.8505 C112.97217,7.65683736 113.453998,8.53199528 113.808,9.476 C115.302674,13.0946848 114.004687,17.1459776 109.914,21.63 C108.183325,23.5180094 106.236344,25.13066 104.073,26.468 C104.623669,26.8613353 105.144831,27.1464991 105.6365,27.3235 C106.128169,27.5005009 106.826329,27.8348309 107.731,28.3265 C108.635671,28.8181691 109.225665,29.7424932 109.501,31.0995 C109.776335,32.4565068 109.707502,33.9806582 109.2945,35.672 C108.881498,37.3633418 108.134172,39.1038244 107.0525,40.8935 C105.970828,42.6831756 104.564675,44.2859929 102.834,45.702 C98.900647,48.966683 94.338026,50.3433359 89.146,49.832 C88.3986629,49.832 87.9266676,49.7730006 87.73,49.655 C87.5333323,49.5369994 87.3760006,49.4386671 87.258,49.36 C87.1399994,49.2813329 86.8843353,49.2223335 86.491,49.183 C85.5076617,49.9696706 84.386673,50.4613323 83.128,50.658 C81.869327,50.8546676 80.6795056,50.7563353 79.5585,50.363 C78.4374944,49.9696647 77.4935038,49.3010047 76.7265,48.357 C75.9594962,47.4129953 75.576,46.1740077 75.576,44.64 C75.6940006,43.6173282 75.8906653,42.811003 76.166,42.221 C76.0479994,41.8669982 75.989,41.4343359 75.989,40.923 C77.32634,33.8036311 78.5849941,28.3560189 79.765,24.58 C82.1643453,17.0672958 84.7603194,11.4033524 87.553,7.588 C89.8343447,4.36265054 93.0006464,2.27800472 97.052,1.334 C100.946019,0.42932881 104.446651,0.82265821 107.554,2.514 Z M89.205,43.696 C89.6770024,43.5779994 90.080165,43.5484997 90.4145,43.6075 C90.748835,43.6665003 91.1519976,43.6566671 91.624,43.578 C92.7646724,43.4599994 94.298657,42.7520065 96.226,41.454 C97.4453394,40.2346606 98.0943329,39.0350059 98.173,37.855 C98.2516671,36.6749941 98.0746688,35.917835 97.642,35.5835 C97.2093312,35.249165 96.6291703,35.082 95.9015,35.082 C95.1738297,35.082 94.3675044,35.1901656 93.4825,35.4065 C92.5974956,35.6228344 91.7420041,35.7506665 90.916,35.79 L90.916,35.908 C90.7193324,36.6946706 90.5226677,37.3829971 90.326,37.973 C90.1293324,38.5630029 89.9523341,39.1333306 89.795,39.684 C89.4409982,40.9820065 89.1656676,42.3193265 88.969,43.696 L89.205,43.696 Z M100.179,13.016 C98.9989941,12.8586659 97.7206736,13.78299 96.344,15.789 C95.4786623,17.047673 94.8100024,18.9553206 94.338,21.512 C95.1640041,21.1579982 95.9801626,20.8531679 96.7865,20.5975 C97.5928374,20.3418321 98.3499965,20.0566682 99.058,19.742 C100.788675,18.9946629 102.027663,18.0900053 102.775,17.028 C103.640338,16.0053282 103.915668,15.1400035 103.601,14.432 C103.128998,13.8026635 102.362005,13.2323359 101.3,12.721 C100.985332,12.9963347 100.611669,13.0946671 100.179,13.016 Z M131.39,49.832 C130.563996,50.0680012 129.777337,50.1958332 129.03,50.2155 C128.282663,50.2351668 127.525504,50.2646665 126.7585,50.304 C125.991496,50.3433335 124.93934,50.363 123.602,50.363 C122.26466,50.363 120.25868,50.3236671 117.584,50.245 C116.954664,50.2843335 116.325336,50.304 115.696,50.304 C115.066664,50.304 114.476669,50.1860012 113.926,49.95 C112.706661,49.4386641 111.880669,48.2586759 111.448,46.41 C111.251332,45.5446623 111.025168,44.9350018 110.7695,44.581 C110.513832,44.2269982 110.307334,43.8926682 110.15,43.578 C109.756665,42.9486635 109.786164,41.9063406 110.2385,40.451 C110.690836,38.9956594 111.270996,37.1961774 111.979,35.0525 C112.687004,32.9088226 113.493329,30.6373453 114.398,28.238 C116.522011,22.5346381 118.429658,18.0113501 120.121,14.668 C120.78967,13.1733259 121.369831,11.8753388 121.8615,10.774 C122.353169,9.67266116 122.795665,8.71883736 123.189,7.9125 C123.582335,7.10616263 123.779,6.68333353 123.779,6.644 C124.172335,5.14932586 125.686653,3.89067178 128.322,2.868 C130.878679,1.80599469 133.199323,1.53066411 135.284,2.042 C137.604678,2.63200295 138.627335,4.16598761 138.352,6.644 C137.801331,9.08267886 136.985172,11.5213211 135.9035,13.96 C134.821828,16.3986789 133.592674,18.95532 132.216,21.63 C130.839326,24.30468 129.344675,27.1366517 127.732,30.126 C126.119325,33.1153483 124.526341,36.3603158 122.953,39.861 C122.913666,40.0183341 122.992332,40.1559994 123.189,40.274 C123.700336,40.2346665 124.418162,40.0773347 125.3425,39.802 C126.266838,39.5266653 127.230495,39.2808344 128.2335,39.0645 C129.236505,38.8481656 130.229662,38.74 131.213,38.74 C132.196338,38.74 133.02233,38.9956641 133.691,39.507 C133.651666,40.2150035 133.828665,40.7754979 134.222,41.1885 C134.615335,41.6015021 135.008665,42.0046647 135.402,42.398 C136.385338,43.4206718 136.464004,44.7776582 135.638,46.469 C134.851329,48.1210083 133.435344,49.2419971 131.39,49.832 Z M163.427,7.116 C162.050326,11.4033548 160.781839,15.2776494 159.6215,18.739 C158.461161,22.2003506 157.399171,25.3863188 156.4355,28.297 C155.471829,31.2076812 154.577004,33.8921544 153.751,36.3505 C152.924996,38.8088456 152.158004,41.1589888 151.45,43.401 C151.056665,45.997013 149.778344,47.8259947 147.615,48.888 C146.356327,49.478003 144.861675,49.773 143.131,49.773 C141.400325,49.773 140.102338,49.5861685 139.237,49.2125 C138.371662,48.8388315 137.811168,48.2980035 137.5555,47.59 C137.299832,46.8819965 137.299832,46.026505 137.5555,45.0235 C137.811168,44.020495 138.253664,42.6438421 138.883,40.8935 C139.512336,39.1431579 140.308829,36.7733483 141.2725,33.784 C142.236171,30.7946517 143.248995,27.7660153 144.311,24.698 C146.946347,17.0279616 149.030992,11.7180147 150.565,8.768 C151.155003,7.66666116 151.744997,6.92916853 152.335,6.5555 C152.925003,6.18183146 153.495331,5.90650088 154.046,5.7295 C154.596669,5.55249911 155.107998,5.34600118 155.58,5.11 C156.052002,4.87399882 156.474831,4.28400472 156.8485,3.34 C157.222169,2.39599528 157.910495,1.74700177 158.9135,1.393 C159.916505,1.03899823 160.860496,1.00949852 161.7455,1.3045 C162.630504,1.59950147 163.299164,2.22882851 163.7515,3.1925 C164.203836,4.15617148 164.09567,5.46399174 163.427,7.116 Z M164.135,24.108 C164.921671,21.4726535 165.560831,19.4371738 166.0525,18.0015 C166.544169,16.5658262 167.025998,15.2776724 167.498,14.137 C167.970002,12.9963276 168.51083,11.8950053 169.1205,10.833 C169.73017,9.77099469 170.39883,8.79750442 171.1265,7.9125 C171.85417,7.02749557 172.630996,6.32933589 173.457,5.818 C174.283004,5.30666411 175.148329,5.051 176.053,5.051 C176.957671,5.051 177.901662,5.40499646 178.885,6.113 C180.458341,10.046353 181.421998,12.68166 181.776,14.019 C182.248002,15.9856765 182.680665,18.7586488 183.074,22.338 C183.428002,21.4333288 183.831164,20.479505 184.2835,19.4765 C184.735836,18.473495 185.178331,17.4606718 185.611,16.438 C186.830339,13.841987 187.597332,11.87534 187.912,10.538 C188.777338,7.7846529 190.566986,5.71967355 193.281,4.343 C195.641012,3.1629941 197.843656,2.78933117 199.889,3.222 C200.715004,3.37933412 201.295165,3.71366411 201.6295,4.225 C201.963835,4.73633589 201.963835,5.26733058 201.6295,5.818 C201.295165,6.36866942 201.177166,6.88983087 201.2755,7.3815 C201.373834,7.87316913 201.462333,8.45332999 201.541,9.122 C201.659001,10.9313424 201.344337,12.5341597 200.597,13.9305 C199.849663,15.3268403 199.082671,17.0574897 198.296,19.1225 C197.509329,21.1875103 196.712837,23.3803217 195.9065,25.701 C195.100163,28.0216783 194.284004,30.3816547 193.458,32.781 C192.631996,35.1803453 191.825671,37.3633235 191.039,39.33 C189.308325,43.8533559 187.892339,46.3509976 186.791,46.823 C185.296326,47.7276712 184.195004,48.2586659 183.487,48.416 C182.582329,48.5733341 181.304008,48.5733341 179.652,48.416 C178.629328,48.3373329 177.744337,47.0196794 176.997,44.463 C176.564331,43.0863265 176.171002,41.1786789 175.817,38.74 C175.187664,34.4919788 174.755001,32.1516688 174.519,31.719 C172.945659,36.8323589 171.834503,40.05766 171.1855,41.395 C170.536497,42.73234 170.044835,43.6173312 169.7105,44.05 C169.376165,44.4826688 168.973002,45.0529965 168.501,45.761 C167.989664,47.1770071 166.770343,48.21933 164.843,48.888 C163.190992,49.5173365 161.69634,49.6156688 160.359,49.183 C158.903659,48.7109976 158.470997,47.80634 159.061,46.469 C159.493669,41.7489764 161.184985,34.2953843 164.135,24.108 Z M207.087,50.422 C205.08099,50.5006671 203.242175,50.2548362 201.5705,49.6845 C199.898825,49.1141638 198.541839,48.3373383 197.4995,47.354 C196.457161,46.3706618 195.798335,45.2201733 195.523,43.9025 C195.247665,42.5848267 195.483663,41.2376735 196.231,39.861 C197.253672,38.2089917 199.298985,37.71733 202.367,38.386 C204.687678,38.8580024 206.290496,39.1136665 207.1755,39.153 C208.060504,39.1923335 208.817664,39.0743347 209.447,38.799 C212.318348,37.8549953 213.930998,36.8323388 214.285,35.731 C214.521001,34.9049959 214.009673,33.9413388 212.751,32.84 C212.239664,32.3679976 211.669336,31.8960024 211.04,31.424 C210.410664,30.9519976 209.879669,30.4800024 209.447,30.008 C207.480324,28.5526594 205.936506,26.8711762 204.8155,24.9635 C203.694494,23.0558238 203.232332,20.9810112 203.429,18.739 C203.625668,16.4969888 203.999331,14.6385074 204.55,13.1635 C205.100669,11.6884926 205.788996,10.3806724 206.615,9.24 C208.070341,7.23398997 209.958322,5.60167296 212.279,4.343 C214.95368,2.96632645 217.097325,2.0813353 218.71,1.688 C221.896016,0.97999646 225.121317,0.92099705 228.386,1.511 C229.487339,1.70766765 230.431329,2.08133058 231.218,2.632 C232.004671,3.18266942 232.791329,3.75299705 233.578,4.343 C234.954674,5.71967355 235.289004,7.11599292 234.581,8.532 C234.305665,9.16133648 233.873003,9.6726647 233.283,10.066 C232.692997,10.4593353 232.06367,10.6756665 231.395,10.715 C231.473667,11.7770053 231.277002,12.5636641 230.805,13.075 C229.900329,13.9796712 228.327011,14.5696653 226.085,14.845 C222.859651,14.6089988 220.676672,14.7859971 219.536,15.376 C218.19866,16.0840035 217.706998,17.6179882 218.061,19.978 C218.139667,20.4893359 218.464164,21.0203306 219.0345,21.571 C219.604836,22.1216694 220.273496,22.7116635 221.0405,23.341 C221.807504,23.9703365 222.613829,24.6783294 223.4595,25.465 C224.305171,26.2516706 225.042664,27.1563282 225.672,28.179 C227.874678,31.7976848 227.697679,36.0259758 225.141,40.864 C223.252991,44.4826848 220.027689,47.1966576 215.465,49.006 C213.104988,49.9500047 210.312349,50.422 207.087,50.422 Z" id="GOBLINS" fill="#3D3D3D"></path>
                <path d="M264.99,33.06 C264.99,32.459997 264.780002,32.16 264.36,32.16 C264.199999,32.16 264.010001,32.1999996 263.79,32.28 C263.569999,32.3600004 263.360001,32.4299997 263.16,32.49 C262.419996,32.890002 261.845002,33.3249977 261.435,33.795 C261.024998,34.2650024 260.610002,34.7899971 260.19,35.37 C259.769998,35.9500029 259.410002,36.5699967 259.11,37.23 C258.809999,37.8900033 258.580001,38.5099971 258.42,39.09 C257.839997,41.2300107 258.059995,42.6699963 259.08,43.41 C259.500002,43.7100015 259.944998,43.8550001 260.415,43.845 C260.885002,43.8349999 261.264999,43.7400009 261.555,43.56 C261.845001,43.3799991 262.129999,43.2100008 262.41,43.05 C262.690001,42.8899992 263.014998,42.7750003 263.385,42.705 C263.755002,42.6349996 264.214997,42.6849992 264.765,42.855 C265.315003,43.0250008 265.61,43.2499986 265.65,43.53 C265.69,43.8100014 265.69,44.0999985 265.65,44.4 C265.61,44.7000015 265.605,44.9699988 265.635,45.21 C265.665,45.4500012 265.879998,45.5999997 266.28,45.66 C266.660002,46.1400024 266.420004,46.7199966 265.56,47.4 C265.339999,47.5800009 265.130001,47.7499992 264.93,47.91 C263.209991,49.0100055 261.38001,49.6199994 259.44,49.74 C258.219994,49.8200004 256.920007,49.6000026 255.54,49.08 C253.47999,48.2999961 252.320001,46.5500136 252.06,43.83 C251.719998,41.3099874 252.039995,38.7000135 253.02,36 C253.840004,33.7199886 255.079992,31.6100097 256.74,29.67 C258.240007,27.8899911 259.719993,26.7300027 261.18,26.19 C262.920009,25.2899955 264.79999,24.939999 266.82,25.14 C268.960011,25.4200014 270.359997,26.3299923 271.02,27.87 C271.680003,29.4100077 271.570004,31.2599892 270.69,33.42 C270.389998,34.1800038 269.820004,34.7799978 268.98,35.22 C268.259996,35.620002 267.480004,35.82 266.64,35.82 C265.799996,35.82 265.260001,35.5550026 265.02,35.025 C264.779999,34.4949973 264.769999,33.8400039 264.99,33.06 Z M280.5,26.1 C280.700001,26.6400027 280.81,26.9999991 280.83,27.18 C280.87,27.5600019 280.730002,27.8799987 280.41,28.14 C280.41,28.1600001 280.39,28.1899998 280.35,28.23 C280.530001,29.1700047 280.57,30.0499959 280.47,30.87 C280.37,31.6900041 280.240001,32.4799962 280.08,33.24 C281.160005,31.3999908 282.019997,30.0500043 282.66,29.19 C283.980007,27.4099911 285.209994,26.1400038 286.35,25.38 C286.730002,25.1599989 287.194997,24.9950006 287.745,24.885 C288.295003,24.7749995 288.819997,24.7599996 289.32,24.84 C289.820002,24.9200004 290.234998,25.1199984 290.565,25.44 C290.895002,25.7600016 291.04,26.2399968 291,26.88 C290.439997,30.7800195 289.840003,34.4149831 289.2,37.785 C288.559997,41.1550168 287.730005,44.3699847 286.71,47.43 L286.71,47.49 L286.68,47.49 C286.439999,48.2100036 285.840005,48.7199985 284.88,49.02 C283.939995,49.3000014 283.100004,49.3200012 282.36,49.08 C281.459995,48.8199987 281.05,48.3400035 281.13,47.64 L281.16,46.95 L281.16,46.89 C281.24,46.4099976 281.285,46.0850009 281.295,45.915 C281.305,45.7449991 281.32,45.6200004 281.34,45.54 C281.38,45.0199974 281.464999,44.5350022 281.595,44.085 C281.725001,43.6349977 281.82,43.2700014 281.88,42.99 C281.94,42.7099986 282,42.4450013 282.06,42.195 C282.12,41.9449987 282.16,41.7500007 282.18,41.61 C281.419996,42.6500052 280.880002,43.2799989 280.56,43.5 C279.759996,44.0600028 278.830005,44.3200002 277.77,44.28 C277.109997,44.2399998 276.730001,44.0900013 276.63,43.83 C276.429999,43.2699972 276.29,42.9400005 276.21,42.84 C276.089999,42.6799992 275.99,42.4100019 275.91,42.03 C275.389997,44.3300115 274.880002,45.9599952 274.38,46.92 C274.179999,47.3000019 273.980001,47.6399985 273.78,47.94 C273.499999,48.6000033 272.860005,49.0599987 271.86,49.32 C270.919995,49.5800013 270.020004,49.5600015 269.16,49.26 C268.279996,48.9799986 267.86,48.4800036 267.9,47.76 C267.94,47.0399964 268.084999,46.1350055 268.335,45.045 C268.585001,43.9549945 268.879998,42.8000061 269.22,41.58 C270.240005,37.7199807 270.964998,35.2100058 271.395,34.05 C271.825002,32.8899942 272.189999,31.9800033 272.49,31.32 C273.210004,29.7799923 273.849997,28.6600035 274.41,27.96 C275.030003,26.6999937 276.059993,25.9400013 277.5,25.68 C278.640006,25.4599989 279.639996,25.5999975 280.5,26.1 Z M294.42,49.74 C293.399995,49.7800002 292.465004,49.6550015 291.615,49.365 C290.764996,49.0749986 290.075003,48.6800025 289.545,48.18 C289.014997,47.6799975 288.680001,47.0950033 288.54,46.425 C288.399999,45.7549966 288.519998,45.0700035 288.9,44.37 C289.420003,43.5299958 290.459992,43.2799983 292.02,43.62 C293.200006,43.8600012 294.014998,43.9899999 294.465,44.01 C294.915002,44.0300001 295.299998,43.9700007 295.62,43.83 C297.080007,43.3499976 297.899999,42.8300028 298.08,42.27 C298.200001,41.8499979 297.940003,41.3600028 297.3,40.8 C297.039999,40.5599988 296.750002,40.3200012 296.43,40.08 C296.109998,39.8399988 295.840001,39.6000012 295.62,39.36 C294.619995,38.6199963 293.835003,37.7650048 293.265,36.795 C292.694997,35.8249951 292.459999,34.7700057 292.56,33.63 C292.660001,32.4899943 292.849999,31.5450037 293.13,30.795 C293.410001,30.0449963 293.759998,29.3800029 294.18,28.8 C294.920004,27.7799949 295.879994,26.9500032 297.06,26.31 C298.420007,25.6099965 299.509996,25.160001 300.33,24.96 C301.950008,24.5999982 303.589992,24.5699985 305.25,24.87 C305.810003,24.9700005 306.289998,25.1599986 306.69,25.44 C307.090002,25.7200014 307.489998,26.0099985 307.89,26.31 C308.590003,27.0100035 308.760002,27.7199964 308.4,28.44 C308.259999,28.7600016 308.040002,29.019999 307.74,29.22 C307.439999,29.420001 307.120002,29.5299999 306.78,29.55 C306.82,30.0900027 306.720001,30.4899987 306.48,30.75 C306.019998,31.2100023 305.220006,31.5099993 304.08,31.65 C302.439992,31.5299994 301.330003,31.6199985 300.75,31.92 C300.069997,32.2800018 299.819999,33.059994 300,34.26 C300.04,34.5200013 300.204999,34.7899986 300.495,35.07 C300.785001,35.3500014 301.124998,35.6499984 301.515,35.97 C301.905002,36.2900016 302.314998,36.649998 302.745,37.05 C303.175002,37.450002 303.549998,37.9099974 303.87,38.43 C304.990006,40.2700092 304.900007,42.4199877 303.6,44.88 C302.639995,46.7200092 301.000012,48.0999954 298.68,49.02 C297.479994,49.5000024 296.060008,49.74 294.42,49.74 Z" id="CMS" stroke="#3D3D3D" fill="#FFFFFF"></path>
            </g>
        </g>
    </g>
</svg>